<?xml version="1.0"?>
<svg version="1.1" xmlns="http://www.w3.org/2000/svg" xmlns:xlink="http://www.w3.org/1999/xlink" width="600" height="600">
    <desc iVinci="yes" version="4.6" gridStep="20" showGrid="no" snapToGrid="no" codePlatform="0"/>
    <g id="Layer1" name="Layer 1" opacity="1">
        <g id="Shape1">
            <desc shapeID="1" type="0" basicInfo-basicType="0" basicInfo-roundedRectRadius="12" basicInfo-polygonSides="6" basicInfo-starPoints="5" bounding="rect(-232.331,-236.028,464.661,472.056)" text="" font-familyName="" font-pixelSize="20" font-bold="0" font-underline="0" font-alignment="1" strokeStyle="0" markerStart="0" markerEnd="0" shadowEnabled="0" shadowOffsetX="0" shadowOffsetY="2" shadowBlur="4" shadowOpacity="160" blurEnabled="0" blurRadius="4" transform="matrix(1,0,0,1,299.936,299.936)" pers-center="0,0" pers-size="0,0" pers-start="0,0" pers-end="0,0" locked="0" mesh="" flag=""/>
            <path id="shapePath1" d="M291.758,384.691 C286.61,377.179 259.146,337.094 259.146,337.094 C259.146,337.094 280.077,394.661 280.077,394.661 C280.077,394.661 215.185,404.084 215.185,404.084 C215.185,404.084 280.077,413.504 280.077,413.504 C280.077,413.504 254.957,462.698 254.957,462.698 C254.957,462.698 286.297,429.749 290.725,425.095 C288.9,496.429 288.451,513.985 288.451,513.985 C288.451,513.985 128.312,439.669 217.279,275.34 C217.279,275.34 106.331,152.878 206.811,77.5178 C206.811,77.5178 35.1578,181.138 144.011,359.073 C144.011,359.073 53.9986,271.155 101.098,182.185 C101.098,182.185 19.4587,297.321 118.892,423.97 C118.892,423.97 91.6783,407.22 67.6054,343.374 C67.6054,343.374 85.1656,533.446 297.817,535.939 C297.817,535.964 297.817,535.964 297.817,535.964 C298.527,535.964 299.231,535.964 299.938,535.96 C300.641,535.964 301.348,535.964 302.056,535.964 C302.056,535.964 302.056,535.964 302.056,535.939 C514.707,533.446 532.267,343.374 532.267,343.374 C508.195,407.22 480.983,423.97 480.983,423.97 C580.414,297.321 498.775,182.185 498.775,182.185 C545.876,271.155 455.861,359.073 455.861,359.073 C564.715,181.138 393.064,77.5178 393.064,77.5178 C493.542,152.878 382.595,275.34 382.595,275.34 C471.56,439.669 311.422,513.985 311.422,513.985 C311.422,513.985 310.975,496.429 309.15,425.095 C313.579,429.749 344.917,462.698 344.917,462.698 C344.917,462.698 319.798,413.504 319.798,413.504 C319.798,413.504 384.688,404.084 384.688,404.084 C384.688,404.084 319.798,394.661 319.798,394.661 C319.798,394.661 340.727,337.094 340.727,337.094 C340.727,337.094 313.265,377.179 308.117,384.691 C305.785,293.576 300.002,67.4965 299.973,66.4293 C299.962,63.9226 299.962,63.9084 299.962,63.9084 C299.962,63.9084 299.962,63.9102 299.937,64.9505 C299.91,63.911 299.91,63.9084 299.91,63.9084 C299.91,63.9084 299.91,63.923 299.899,66.4293 C299.852,68.2126 294.083,293.783 291.757,384.691 L291.758,384.691 Z" style="stroke:none;fill-rule:evenodd;fill:#1e1e1e;fill-opacity:1;"/>
        </g>
        <g id="Shape2">
            <desc shapeID="2" type="0" basicInfo-basicType="0" basicInfo-roundedRectRadius="12" basicInfo-polygonSides="6" basicInfo-starPoints="5" bounding="rect(-299.938,-299.938,599.875,599.875)" text="" font-familyName="" font-pixelSize="20" font-bold="0" font-underline="0" font-alignment="1" strokeStyle="0" markerStart="0" markerEnd="0" shadowEnabled="0" shadowOffsetX="0" shadowOffsetY="2" shadowBlur="4" shadowOpacity="160" blurEnabled="0" blurRadius="4" transform="matrix(1,0,0,1,299.938,299.938)" pers-center="0,0" pers-size="0,0" pers-start="0,0" pers-end="0,0" locked="0" mesh="" flag=""/>
            <path id="shapePath2" d="M299.938,0 C134.287,0 0,134.287 0,299.938 C0,465.588 134.287,599.875 299.938,599.875 C465.588,599.875 599.875,465.588 599.875,299.938 C599.875,134.287 465.588,0 299.938,0 Z" style="stroke:#880000;stroke-opacity:1;stroke-width:0.0533726;stroke-linejoin:;stroke-miterlimit:2;stroke-linecap:butt;fill:none;"/>
        </g>
        <g id="Shape3">
            <desc shapeID="3" type="0" basicInfo-basicType="0" basicInfo-roundedRectRadius="12" basicInfo-polygonSides="6" basicInfo-starPoints="5" bounding="rect(-299.938,-299.938,599.875,599.875)" text="" font-familyName="" font-pixelSize="20" font-bold="0" font-underline="0" font-alignment="1" strokeStyle="0" markerStart="0" markerEnd="0" shadowEnabled="0" shadowOffsetX="0" shadowOffsetY="2" shadowBlur="4" shadowOpacity="160" blurEnabled="0" blurRadius="4" transform="matrix(1,0,0,1,299.938,299.938)" pers-center="0,0" pers-size="0,0" pers-start="0,0" pers-end="0,0" locked="0" mesh="" flag=""/>
            <path id="shapePath3" d="M299.938,35.9348 C445.738,35.9348 563.94,154.136 563.94,299.938 C563.94,445.738 445.738,563.94 299.938,563.94 C154.136,563.94 35.9348,445.738 35.9348,299.938 C35.9348,154.136 154.136,35.9348 299.938,35.9348 M299.938,0 C134.289,0 0,134.289 0,299.938 C0,465.584 134.289,599.875 299.938,599.875 C465.584,599.875 599.875,465.584 599.875,299.938 C599.875,134.289 465.584,0 299.938,0 Z" style="stroke:none;fill-rule:evenodd;fill:#1e1e1e;fill-opacity:1;"/>
        </g>
    </g>
</svg>
