<?xml version="1.0" encoding="UTF-8" standalone="no"?>
<svg
   xmlns:dc="http://purl.org/dc/elements/1.1/"
   xmlns:cc="http://creativecommons.org/ns#"
   xmlns:rdf="http://www.w3.org/1999/02/22-rdf-syntax-ns#"
   xmlns:svg="http://www.w3.org/2000/svg"
   xmlns="http://www.w3.org/2000/svg"
   xmlns:sodipodi="http://sodipodi.sourceforge.net/DTD/sodipodi-0.dtd"
   xmlns:inkscape="http://www.inkscape.org/namespaces/inkscape"
   version="1.0"
   width="850.10364"
   height="650.10364"
   id="s1"
   xml:space="preserve"
   inkscape:version="0.91 r13725"
   sodipodi:docname="logo.svg"><metadata
     id="metadata12"><rdf:RDF><cc:Work
         rdf:about=""><dc:format>image/svg+xml</dc:format><dc:type
           rdf:resource="http://purl.org/dc/dcmitype/StillImage" /><dc:title></dc:title></cc:Work></rdf:RDF></metadata><defs
     id="defs10" /><sodipodi:namedview
     pagecolor="#ffffff"
     bordercolor="#666666"
     borderopacity="1"
     objecttolerance="10"
     gridtolerance="10"
     guidetolerance="10"
     inkscape:pageopacity="0"
     inkscape:pageshadow="2"
     inkscape:window-width="1043"
     inkscape:window-height="659"
     id="namedview8"
     showgrid="false"
     inkscape:zoom="0.39333333"
     inkscape:cx="361.27453"
     inkscape:cy="458.54543"
     inkscape:window-x="49"
     inkscape:window-y="27"
     inkscape:window-maximized="0"
     inkscape:current-layer="g2"
     fit-margin-top="50"
     fit-margin-left="50"
     fit-margin-right="50"
     fit-margin-bottom="50" /><g
     transform="matrix(1.8288872,0,0,-1.8288872,20.85211,629.2515)"
     id="g1"><g
       transform="scale(1,-1)"
       id="g2"><path
         d="m 216.50006,-119.95286 c -2.81445,-4.10743 -17.83154,-26.02539 -17.83154,-26.02539 0,0 11.44483,31.47656 11.44483,31.47656 0,0 -35.48145,5.15234 -35.48145,5.15234 0,0 35.48145,5.15039 35.48145,5.15039 0,0 -13.73487,26.898442 -13.73487,26.898442 0,0 17.13574,-18.015619 19.55713,-20.560549 -0.99805,39.003909 -1.24365,48.603519 -1.24365,48.603519 0,0 -87.56055,-40.634769 -38.91553,-130.486332 0,0 -60.66406,-66.95996 -5.72363,-108.16553 0,0 -93.85644,56.65772 -34.33789,153.94873 0,0 -49.21679,-48.07177 -23.46386,-96.71875 0,0 -44.63867,62.95411 9.72948,132.203133 0,0 -14.87987,-9.158203 -28.04247,-44.068363 0,0 9.60156,103.927732 125.87548,105.291022 0,0.01367 0,0.01367 0,0.01367 0.3877,0 0.77295,0 1.15918,-0.002 0.38477,0.002 0.77148,0.002 1.1582,0.002 0,0 0,0 0,-0.01367 116.27344,-1.36329 125.875,-105.291022 125.875,-105.291022 -13.16211,34.91016 -28.04101,44.068363 -28.04101,44.068363 54.36719,-69.249023 9.72851,-132.203133 9.72851,-132.203133 25.75391,48.64698 -23.46484,96.71875 -23.46484,96.71875 59.51953,-97.29101 -34.33594,-153.94873 -34.33594,-153.94873 54.93946,41.20557 -5.72461,108.16553 -5.72461,108.16553 48.64453,89.851563 -38.91601,130.486332 -38.91601,130.486332 0,0 -0.24414,-9.59961 -1.24219,-48.603519 2.42187,2.54493 19.55664,20.560549 19.55664,20.560549 0,0 -13.73437,-26.898442 -13.73437,-26.898442 0,0 35.48046,-5.15039 35.48046,-5.15039 0,0 -35.48046,-5.15234 -35.48046,-5.15234 0,0 11.44335,-31.47656 11.44335,-31.47656 0,0 -15.01562,21.91796 -17.83007,26.02539 -1.27539,-49.82032 -4.4375,-173.43604 -4.45313,-174.01953 -0.006,-1.37061 -0.006,-1.37842 -0.006,-1.37842 0,0 0,0.001 -0.0137,0.56982 -0.0151,-0.56836 -0.0151,-0.56982 -0.0151,-0.56982 0,0 0,0.008 -0.006,1.37842 -0.0254,0.97509 -3.17968,124.3125 -4.45166,174.01953 0,0 0,0 0,0 z"
         id="p1"
         style="fill:#1e1e1e;fill-opacity:1;fill-rule:evenodd;stroke:none"
         inkscape:connector-curvature="0" /><path
         d="m 220.97272,-330.29466 c -90.57471,0 -163.99999,73.42529 -163.99999,164 0,90.574222 73.42528,164.0000019 163.99999,164.0000019 90.57422,0 164,-73.4257799 164,-164.0000019 0,-90.57471 -73.42578,-164 -164,-164 0,0 0,0 0,0 z"
         id="p2"
         style="fill:none;stroke:#880000;stroke-width:0.05337262;stroke-linecap:butt;stroke-linejoin:miter;stroke-miterlimit:10;stroke-dasharray:none;stroke-opacity:1"
         inkscape:connector-curvature="0" /><path
         d="m 220.97272,-310.64622 c 79.7207,0 144.35156,64.62988 144.35156,144.35156 0,79.720703 -64.63086,144.351562 -144.35156,144.351562 -79.72168,0 -144.35155,-64.630859 -144.35155,-144.351562 0,-79.72168 64.62987,-144.35156 144.35155,-144.35156 0,0 0,0 0,0 z m 0,-19.64844 c -90.57324,0 -163.99999,73.42676 -163.99999,164 0,90.572272 73.42675,164.0000019 163.99999,164.0000019 90.57227,0 164,-73.4277299 164,-164.0000019 0,-90.57324 -73.42773,-164 -164,-164 0,0 0,0 0,0 z"
         id="p3"
         style="fill:#1e1e1e;fill-opacity:1;fill-rule:evenodd;stroke:none"
         inkscape:connector-curvature="0" /></g></g></svg>